<svg xmlns="http://www.w3.org/2000/svg" viewBox="0 0 270.34 128.07"><defs><style>.cls-1{fill:#5cb8da;}.cls-2{fill:#6dc497;}.cls-3{fill:#4167b0;}.cls-4{fill:#fff;}</style></defs><title>Reverse color</title><g id="Layer_2" data-name="Layer 2"><g id="Layer_1-2" data-name="Layer 1"><polygon class="cls-1" points="84.01 66.6 88.97 62.97 75.22 45.42 69.97 51.18 84.01 66.6"/><polygon class="cls-2" points="106.17 90.96 109.87 89.67 94.82 70.45 90.11 73.31 106.17 90.96"/><polygon class="cls-1" points="33.77 90.96 0 128.07 45.24 94.97 33.77 90.96"/><polygon class="cls-3" points="49.84 73.31 45.13 70.45 30.07 89.67 33.77 90.96 49.84 73.31"/><polygon class="cls-1" points="69.97 51.18 64.73 45.42 50.98 62.97 55.94 66.6 69.97 51.18"/><polygon class="cls-4" points="76.45 81.61 94.71 94.97 106.18 90.96 90.11 73.31 76.45 81.61"/><polygon class="cls-4" points="84.01 66.6 69.97 51.18 55.94 66.6 69.97 76.86 84.01 66.6"/><polygon class="cls-1" points="76.45 81.61 90.11 73.31 84 66.6 69.97 76.86 76.45 81.61"/><polygon class="cls-1" points="69.97 76.86 55.94 66.6 49.84 73.31 63.49 81.61 69.97 76.86"/><polygon class="cls-2" points="69.97 85.55 88.85 97.01 94.71 94.97 76.45 81.61 69.97 85.55"/><polygon class="cls-3" points="51.1 97.01 69.97 103.61 88.85 97.01 69.97 85.55 51.1 97.01"/><polygon class="cls-4" points="49.84 73.31 33.77 90.96 45.24 94.97 63.49 81.61 49.84 73.31"/><polygon class="cls-3" points="63.49 81.61 45.24 94.97 51.1 97.01 69.97 85.55 63.49 81.61"/><polygon class="cls-3" points="69.97 38.72 57.56 22.86 52.54 32.03 64.73 45.42 69.97 38.72"/><polygon points="82.48 22.75 70.06 0 82.47 22.77 82.48 22.75"/><polygon class="cls-4" points="88.97 62.97 100.01 54.89 87.49 31.94 75.22 45.42 88.97 62.97"/><polygon class="cls-2" points="94.82 70.45 105.1 64.2 100.01 54.89 88.97 62.97 94.82 70.45"/><polygon class="cls-4" points="82.47 22.77 70.06 0 57.55 22.86 69.97 38.72 82.47 22.77"/><polygon class="cls-4" points="64.73 45.42 52.54 32.03 40.01 54.94 50.98 62.97 64.73 45.42"/><polygon class="cls-4" points="45.13 70.45 34.92 64.24 22.46 87.01 30.07 89.67 45.13 70.45"/><polygon class="cls-3" points="30.07 89.67 22.46 87 0 128.07 30.07 89.67"/><polygon class="cls-3" points="50.98 62.97 40.01 54.94 34.92 64.24 45.13 70.45 50.98 62.97"/><polygon class="cls-2" points="82.48 22.8 82.47 22.77 69.97 38.72 75.22 45.42 87.49 31.94 82.48 22.75 82.47 22.77 82.48 22.8"/><polygon class="cls-3" points="69.97 103.61 139.95 128.07 88.85 97.01 69.97 103.61"/><polygon class="cls-4" points="109.87 89.67 117.53 86.99 105.1 64.2 94.82 70.45 109.87 89.67"/><polygon class="cls-2" points="51.1 97.01 0 128.07 69.97 103.61 51.1 97.01"/><polygon class="cls-2" points="139.95 128.07 117.53 86.99 109.87 89.67 139.95 128.07"/><polygon class="cls-1" points="94.71 94.97 139.95 128.07 106.17 90.96 94.71 94.97"/><polygon class="cls-4" points="269.42 56.09 269.42 58.25 259.76 59.63 259.76 57.47 269.42 56.09"/><path class="cls-4" d="M224.34,34.73V54a5,5,0,0,1-5,5h-9.09v-4.8h9.09c.17,0,.26-.07.26-.21V34.73Z"/><path class="cls-4" d="M265.32,39.75h-7.49c-.17,0-.26.07-.26.22v6.67a.23.23,0,0,0,.26.26h7.49a.23.23,0,0,0,.26-.26V40c0-.15-.09-.22-.26-.22m0-4.8a5,5,0,0,1,5,5V51.66h-46V46.9h28.51V40a5,5,0,0,1,5-5Z"/><path class="cls-4" d="M193.58,45.55V35.08h4.76V45.55a5,5,0,0,1-5,5H187a5,5,0,0,1-5-5V35.15h4.76v10.4a.23.23,0,0,0,.25.26h6.31a.23.23,0,0,0,.26-.26"/><path class="cls-4" d="M182.58,45.55V35.08h4.76V45.55a5,5,0,0,1-5,5H176a5,5,0,0,1-5-5V35.15h4.77v10.4c0,.17.08.26.25.26h6.31a.23.23,0,0,0,.26-.26"/><path class="cls-4" d="M161.28,35V53.71a.23.23,0,0,0,.26.26h9a.23.23,0,0,0,.26-.26V35h4.8V53.71a5.05,5.05,0,0,1-5.06,5.06h-9a5,5,0,0,1-5.06-5.06V35Z"/><rect class="cls-4" x="204.27" y="22.01" width="4.8" height="28.56"/><path class="cls-4" d="M243.29,83.57V80.49H232.46v2.85a.21.21,0,0,0,.23.23Zm-.23-14.87a4.58,4.58,0,0,1,4.57,4.57V87.91H232.69a4.58,4.58,0,0,1-4.57-4.57V76.12h15.17V73.27a.21.21,0,0,0-.23-.23H228.12V68.7Z"/><path class="cls-4" d="M214.08,68.59h10.67v4.34H214.08a.2.2,0,0,0-.23.23V87.79h-4.34V73.16a4.58,4.58,0,0,1,4.57-4.57"/><polygon class="cls-4" points="169.69 74.72 178.34 64.39 183.14 64.39 183.14 88.23 178.73 88.23 178.73 70.75 169.69 81.51 160.62 70.75 160.62 88.23 156.25 88.23 156.25 64.39 161.02 64.39 169.69 74.72"/><path class="cls-4" d="M270.34,73.23v.82h-4.29v-.82a.2.2,0,0,0-.23-.23H255.55a.2.2,0,0,0-.23.23v2.62c0,.13.08.2.23.2h10.27a4.51,4.51,0,0,1,4.52,4.52V83.2a4.49,4.49,0,0,1-4.52,4.52H255.55A4.52,4.52,0,0,1,251,83.2v-.82h4.3v.82a.21.21,0,0,0,.23.23h10.27a.21.21,0,0,0,.23-.23V80.57c0-.13-.08-.19-.23-.19H255.55A4.54,4.54,0,0,1,251,75.85V73.23a4.54,4.54,0,0,1,4.53-4.53h10.27a4.51,4.51,0,0,1,4.52,4.53"/><path class="cls-4" d="M190.79,72.93V76h10.83V73.16a.2.2,0,0,0-.23-.23ZM191,87.79a4.58,4.58,0,0,1-4.57-4.57V68.59h14.94A4.58,4.58,0,0,1,206,73.16v7.22H190.79v2.84a.21.21,0,0,0,.23.24H206v4.33Z"/></g></g></svg>